<svg xmlns="http://www.w3.org/2000/svg" width="20.853" height="20.868" viewBox="0 0 20.853 20.868">
  <path id="download-solid" d="M11.73,1.3a1.3,1.3,0,1,0-2.607,0V11.2L6.134,8.2a1.305,1.305,0,0,0-1.845,1.846L9.5,15.268a1.3,1.3,0,0,0,1.845,0l5.213-5.217A1.305,1.305,0,0,0,14.715,8.2L11.73,11.2ZM2.607,14.347A2.61,2.61,0,0,0,0,16.956v1.3a2.61,2.61,0,0,0,2.607,2.609h15.64a2.61,2.61,0,0,0,2.607-2.609v-1.3a2.61,2.61,0,0,0-2.607-2.609H14.113l-1.845,1.846a2.6,2.6,0,0,1-3.686,0L6.741,14.347ZM17.595,16.63a.978.978,0,1,1-.977.978A.978.978,0,0,1,17.595,16.63Z" fill="#ada3e9"/>
</svg>
