<svg xmlns="http://www.w3.org/2000/svg" width="292" height="294.746" viewBox="0 0 292 294.746">
  <g id="Group_83" data-name="Group 83" transform="translate(-411.5 -637.127)">
    <g id="Group_81" data-name="Group 81" transform="translate(28.5 51.127)">
      <g id="Group_80" data-name="Group 80" transform="translate(383 586)">
        <text id="Transactions" transform="translate(0 30)" fill="#141430" font-size="32" font-family="SFCompactDisplay-Bold, SF Compact Display" font-weight="700"><tspan x="0" y="0">Transactions</tspan></text>
        <g id="Group_67" data-name="Group 67" transform="translate(4 67.058)">
          <g id="Path_40" data-name="Path 40" transform="translate(0 0)" fill="none">
            <path d="M6,0H29a6,6,0,0,1,6,6V28.877a6,6,0,0,1-6,6H6a6,6,0,0,1-6-6V6A6,6,0,0,1,6,0Z" stroke="none"/>
            <path d="M 6 1.999996185302734 C 3.794389724731445 1.999996185302734 2 3.79438591003418 2 5.999996185302734 L 2 28.877197265625 C 2 31.08280754089355 3.794389724731445 32.877197265625 6 32.877197265625 L 29 32.877197265625 C 31.20561027526855 32.877197265625 33 31.08280754089355 33 28.877197265625 L 33 5.999996185302734 C 33 3.79438591003418 31.20561027526855 1.999996185302734 29 1.999996185302734 L 6 1.999996185302734 M 6 -3.814697265625e-06 L 29 -3.814697265625e-06 C 32.3137092590332 -3.814697265625e-06 35 2.686286926269531 35 5.999996185302734 L 35 28.877197265625 C 35 32.1909065246582 32.3137092590332 34.877197265625 29 34.877197265625 L 6 34.877197265625 C 2.686290740966797 34.877197265625 0 32.1909065246582 0 28.877197265625 L 0 5.999996185302734 C 0 2.686286926269531 2.686290740966797 -3.814697265625e-06 6 -3.814697265625e-06 Z" stroke="none" fill="#141430"/>
          </g>
          <path id="apple" d="M19.049,43.319a4.464,4.464,0,0,1,2.391-4.055,5.138,5.138,0,0,0-4.05-2.133c-1.7-.134-3.553.99-4.232.99-.717,0-2.362-.942-3.654-.942-2.668.043-5.5,2.128-5.5,6.37a11.919,11.919,0,0,0,.689,3.883c.612,1.755,2.821,6.059,5.126,5.987,1.205-.029,2.056-.856,3.625-.856,1.521,0,2.31.856,3.654.856,2.324-.033,4.323-3.945,4.906-5.705a4.741,4.741,0,0,1-2.951-4.395Zm-2.707-7.852A4.5,4.5,0,0,0,17.49,32a5.071,5.071,0,0,0-3.247,1.669,4.575,4.575,0,0,0-1.224,3.438A4.016,4.016,0,0,0,16.343,35.467Z" transform="translate(4.5 -26.619)" fill="#141430"/>
        </g>
        <g id="Group_41" data-name="Group 41" transform="translate(4 195.599)">
          <g id="Rectangle_95" data-name="Rectangle 95" transform="translate(0 0)" fill="none" stroke="#141430" stroke-width="2">
            <rect width="34.276" height="34.877" rx="6" stroke="none"/>
            <rect x="1" y="1" width="32.276" height="32.877" rx="5" fill="none"/>
          </g>
          <path id="uber_1_" data-name="uber (1)" d="M16.642,32H1.362A1.364,1.364,0,0,0,0,33.362V48.638A1.364,1.364,0,0,0,1.362,50H16.638A1.364,1.364,0,0,0,18,48.642V33.362A1.358,1.358,0,0,0,16.642,32ZM9.549,46.431a5.458,5.458,0,0,1-5.976-4.883H7.366v.82a.274.274,0,0,0,.273.273h2.729a.274.274,0,0,0,.273-.273V39.64a.274.274,0,0,0-.273-.273H7.64a.274.274,0,0,0-.273.273v.82H3.573a5.456,5.456,0,1,1,5.976,5.972Z" transform="translate(8.5 -23.563)" fill="#141430"/>
        </g>
        <g id="Group_70" data-name="Group 70" transform="translate(3.638 259.869)">
          <g id="Path_41" data-name="Path 41" fill="none">
            <path d="M6,0H29a6,6,0,0,1,6,6V28.877a6,6,0,0,1-6,6H6a6,6,0,0,1-6-6V6A6,6,0,0,1,6,0Z" stroke="none"/>
            <path d="M 6 1.999996185302734 C 3.794389724731445 1.999996185302734 2 3.79438591003418 2 5.999996185302734 L 2 28.877197265625 C 2 31.08280754089355 3.794389724731445 32.877197265625 6 32.877197265625 L 29 32.877197265625 C 31.20561027526855 32.877197265625 33 31.08280754089355 33 28.877197265625 L 33 5.999996185302734 C 33 3.79438591003418 31.20561027526855 1.999996185302734 29 1.999996185302734 L 6 1.999996185302734 M 6 -3.814697265625e-06 L 29 -3.814697265625e-06 C 32.3137092590332 -3.814697265625e-06 35 2.686286926269531 35 5.999996185302734 L 35 28.877197265625 C 35 32.1909065246582 32.3137092590332 34.877197265625 29 34.877197265625 L 6 34.877197265625 C 2.686290740966797 34.877197265625 0 32.1909065246582 0 28.877197265625 L 0 5.999996185302734 C 0 2.686286926269531 2.686290740966797 -3.814697265625e-06 6 -3.814697265625e-06 Z" stroke="none" fill="#141430"/>
          </g>
          <path id="amazon" d="M17.406,37.421c-2.02.075-7.031.643-7.031,4.874,0,4.542,5.737,4.729,7.612,1.792a19.129,19.129,0,0,0,1.879,1.941l2.356-2.323s-1.34-1.049-1.34-2.19v-6.1c0-1.049-1.016-3.414-4.658-3.414s-5.587,2.281-5.587,4.326l3.049.282a2.584,2.584,0,0,1,2.248-2.053C17.622,34.551,17.406,35.791,17.406,37.421Zm0,3.6c0,3.318-3.493,2.821-3.493.713,0-1.958,2.095-2.352,3.493-2.4ZM23.047,47.8a10.074,10.074,0,0,1-7.238,2.779,12.208,12.208,0,0,1-8.669-4.19c-.282-.319.041-.469.228-.344,3.041,1.846,7.79,4.886,15.451,1.257C23.13,47.153,23.371,47.389,23.047,47.8ZM24.7,47.9a3.457,3.457,0,0,1-.879,1.286c-.228.187-.394.112-.27-.158s.8-1.929.527-2.281-1.535-.178-1.991-.133-.539.083-.581-.012c-.1-.236.9-.643,1.556-.726s1.7-.033,1.908.236A3.038,3.038,0,0,1,24.7,47.9Z" transform="translate(1.471 -23.853)" fill="#141430"/>
        </g>
        <g id="Group_79" data-name="Group 79" transform="translate(4 131.328)">
          <g id="Group_41-2" data-name="Group 41" transform="translate(0 0)">
            <g id="Path_43" data-name="Path 43" fill="none">
              <path d="M6,0H28.276a6,6,0,0,1,6,6V28.877a6,6,0,0,1-6,6H6a6,6,0,0,1-6-6V6A6,6,0,0,1,6,0Z" stroke="none"/>
              <path d="M 6.000001907348633 1.999996185302734 C 3.794391632080078 1.999996185302734 2 3.79438591003418 2 5.999996185302734 L 2 28.877197265625 C 2 31.08280754089355 3.794391632080078 32.877197265625 6.000001907348633 32.877197265625 L 28.2758617401123 32.877197265625 C 30.48147201538086 32.877197265625 32.27586364746094 31.08280754089355 32.27586364746094 28.877197265625 L 32.27586364746094 5.999996185302734 C 32.27586364746094 3.79438591003418 30.48147201538086 1.999996185302734 28.2758617401123 1.999996185302734 L 6.000001907348633 1.999996185302734 M 6.000001907348633 -3.814697265625e-06 L 28.2758617401123 -3.814697265625e-06 C 31.58957099914551 -3.814697265625e-06 34.27586364746094 2.686286926269531 34.27586364746094 5.999996185302734 L 34.27586364746094 28.877197265625 C 34.27586364746094 32.1909065246582 31.58957099914551 34.877197265625 28.2758617401123 34.877197265625 L 6.000001907348633 34.877197265625 C 2.68629264831543 34.877197265625 0 32.1909065246582 0 28.877197265625 L 0 5.999996185302734 C 0 2.686286926269531 2.68629264831543 -3.814697265625e-06 6.000001907348633 -3.814697265625e-06 Z" stroke="none" fill="#141430"/>
            </g>
          </g>
          <path id="playstation" d="M23.421,45.977a4.434,4.434,0,0,1-1.594,1L13.4,50v-2.23l6.2-2.21c.7-.251.813-.608.238-.8a4.154,4.154,0,0,0-2.308.119L13.4,46.339V44.022a14.561,14.561,0,0,1,3.109-.69,12.25,12.25,0,0,1,5.348.637c1.815.575,2.021,1.425,1.561,2.008Zm-9.217-3.8V36.469c0-.67-.123-1.286-.752-1.462-.481-.156-.78.292-.78.961V50.257L8.819,49.033V32a46.416,46.416,0,0,1,5.307,1.454c3.265,1.121,4.37,2.518,4.37,5.66,0,3.06-1.889,4.222-4.292,3.064ZM1.746,47.534C-.118,47.008-.431,45.912.42,45.283A9.114,9.114,0,0,1,2.543,44.26L8.068,42.3v2.238L4.092,45.957c-.7.251-.809.608-.238.8a4.154,4.154,0,0,0,2.308-.119l1.906-.694v2a12.5,12.5,0,0,1-6.321-.411Z" transform="translate(5.699 -24.536)" fill="#141430"/>
        </g>
        <text id="_2_20_2023" data-name="2/20/2023" transform="translate(55 97)" fill="#141430" font-size="12" font-family="SFCompactDisplay-Regular, SF Compact Display"><tspan x="0" y="0">2/20/2023</tspan></text>
        <text id="Apple-2" data-name="Apple" transform="translate(55 81)" fill="#141430" font-size="18" font-family="SFCompactDisplay-Medium, SF Compact Display" font-weight="500"><tspan x="0" y="0">Apple</tspan></text>
        <text id="_3_3_2023" data-name="3/3/2023" transform="translate(55 164)" fill="#141430" font-size="12" font-family="SFCompactDisplay-Regular, SF Compact Display"><tspan x="0" y="0">3/3/2023</tspan></text>
        <text id="_1_17_2023" data-name="1/17/2023" transform="translate(55 231)" fill="#141430" font-size="12" font-family="SFCompactDisplay-Regular, SF Compact Display"><tspan x="0" y="0">1/17/2023</tspan></text>
        <text id="Jan_1_2023" data-name="Jan 1, 2023" transform="translate(55 289)" fill="#141430" font-size="12" font-family="SFCompactDisplay-Regular, SF Compact Display"><tspan x="0" y="0">Jan 1, 2023</tspan></text>
        <text id="_-_49.96" data-name="-$49.96" transform="translate(231 90)" fill="#141430" font-size="18" font-family="SFCompactDisplay-Regular, SF Compact Display"><tspan x="0" y="0">-$49.96</tspan></text>
        <text id="_-_12.03" data-name="-$12.03" transform="translate(230 220)" fill="#141430" font-size="18" font-family="SFCompactDisplay-Regular, SF Compact Display"><tspan x="0" y="0">-$12.03</tspan></text>
        <text id="_-_43.06" data-name="-$43.06" transform="translate(231 281)" fill="#141430" font-size="18" font-family="SFCompactDisplay-Regular, SF Compact Display"><tspan x="0" y="0">-$43.06</tspan></text>
        <text id="PlayStation-2" data-name="PlayStation" transform="translate(55 147)" fill="#141430" font-size="18" font-family="SFCompactDisplay-Medium, SF Compact Display" font-weight="500"><tspan x="0" y="0">PlayStation</tspan></text>
        <text id="Uber" transform="translate(55 213)" fill="#141430" font-size="18" font-family="SFCompactDisplay-Medium, SF Compact Display" font-weight="500"><tspan x="0" y="0">Uber</tspan></text>
        <text id="Amazon-2" data-name="Amazon" transform="translate(53 274)" fill="#141430" font-size="18" font-family="SFCompactDisplay-Medium, SF Compact Display" font-weight="500"><tspan x="0" y="0">Amazon</tspan></text>
        <text id="_-_82.12" data-name="-$82.12" transform="translate(231 146)" fill="#141430" font-size="18" font-family="SFCompactDisplay-Regular, SF Compact Display"><tspan x="0" y="0">-$82.12</tspan></text>
      </g>
    </g>
  </g>
</svg>
